<?xml version="1.0" encoding="UTF-8"?>
<!DOCTYPE svg PUBLIC "-//W3C//DTD SVG 1.1//EN" "http://www.w3.org/Graphics/SVG/1.1/DTD/svg11.dtd">
<svg version="1.1" xmlns="http://www.w3.org/2000/svg" xmlns:xlink="http://www.w3.org/1999/xlink" width="20" height="20"  xml:space="preserve" id="btn_google_light_normal_iosCanvas">
    <!-- Generated by PaintCode (www.paintcodeapp.com) -->
    <g id="btn_google_light_normal_iosCanvas-googleButton">
        <g id="btn_google_light_normal_iosCanvas-group9PATCH">
        </g>
        <g id="btn_google_light_normal_iosCanvas-btn_google_light_normal">
            <g id="btn_google_light_normal_iosCanvas-button">
                <g id="btn_google_light_normal_iosCanvas-buttonbg">
                    <rect id="btn_google_light_normal_iosCanvas-path2" stroke="none" fill="rgb(255, 255, 255)" x="-10" y="-10" width="40" height="40" rx="2" />
                </g>
            </g>
            <g id="btn_google_light_normal_iosCanvas-logo_googleg_48dp">
                <path id="btn_google_light_normal_iosCanvas-shape" stroke="none" fill="rgb(52, 109, 241)" d="M 18.64,10.2 C 18.64,9.57 18.58,8.95 18.48,8.36 L 10,8.36 10,11.85 14.84,11.85 C 14.63,12.97 14,13.92 13.05,14.56 L 13.05,16.82 15.96,16.82 C 17.66,15.25 18.64,12.95 18.64,10.2 L 18.64,10.2 Z M 18.64,10.2" />
                <path id="btn_google_light_normal_iosCanvas-shape2" stroke="none" fill="rgb(45, 155, 66)" d="M 10,19 C 12.43,19 14.47,18.19 15.96,16.82 L 13.05,14.56 C 12.24,15.1 11.21,15.42 10,15.42 7.66,15.42 5.67,13.84 4.96,11.71 L 1.96,11.71 1.96,14.04 C 3.44,16.98 6.48,19 10,19 L 10,19 Z M 10,19" />
                <path id="btn_google_light_normal_iosCanvas-shape3" stroke="none" fill="rgb(248, 176, 12)" d="M 4.96,11.71 C 4.78,11.17 4.68,10.59 4.68,10 4.68,9.41 4.78,8.83 4.96,8.29 L 4.96,5.96 1.96,5.96 C 1.35,7.17 1,8.55 1,10 1,11.45 1.35,12.83 1.96,14.04 L 4.96,11.71 4.96,11.71 Z M 4.96,11.71" />
                <path id="btn_google_light_normal_iosCanvas-shape4" stroke="none" fill="rgb(226, 44, 41)" d="M 10,4.58 C 11.32,4.58 12.51,5.03 13.44,5.93 L 16.02,3.34 C 14.46,1.89 12.43,1 10,1 6.48,1 3.44,3.02 1.96,5.96 L 4.96,8.29 C 5.67,6.16 7.66,4.58 10,4.58 L 10,4.58 Z M 10,4.58" />
            </g>
            <g id="btn_google_light_normal_iosCanvas-handles_square">
            </g>
        </g>
    </g>
</svg>
